<?xml version="1.0" encoding="UTF-8"?>
<!-- Generated by Pixelmator Pro 3.6.13 -->
<svg width="16" height="16" viewBox="0 0 16 16" xmlns="http://www.w3.org/2000/svg">
    <g id="layer12">
        <path id="path4743" fill="#f4f4f4" stroke="none" opacity="1" d="M 4.999814 4.00336 C 4.447506 4.00336 3.999814 4.451076 3.999814 5.00336 C 3.999844 5.268558 4.105221 5.522883 4.292782 5.710391 L 6.585751 8.00336 L 4.292782 10.296329 C 4.105221 10.483829 3.999844 10.738162 3.999814 11.00336 C 3.999814 11.555652 4.447506 12.00336 4.999814 12.00336 C 5.265011 12.003314 5.519314 11.897937 5.706845 11.710391 L 7.999814 9.417422 L 10.282987 11.700625 C 10.47128 11.894168 10.729795 12.00336 10.999814 12.00336 C 11.552091 12.00336 11.999814 11.555652 11.999814 11.00336 C 11.999753 10.738162 11.894376 10.483829 11.706845 10.296329 L 9.413846 8.00336 L 11.69708 5.720157 C 11.890622 5.531894 11.999784 5.273364 11.999814 5.00336 C 11.999814 4.451076 11.552091 4.00336 10.999814 4.00336 C 10.734586 4.003398 10.480283 4.108783 10.292783 4.296329 L 7.999814 6.589297 L 5.71661 4.306087 C 5.713284 4.30273 5.709958 4.299403 5.706601 4.296092 C 5.51907 4.108638 5.264767 4.003345 4.9996 4.00336 Z"/>
    </g>
</svg>
