<?xml version="1.0" encoding="UTF-8" standalone="no"?>
<!DOCTYPE svg PUBLIC "-//W3C//DTD SVG 1.1//EN" "http://www.w3.org/Graphics/SVG/1.1/DTD/svg11.dtd">
<svg width="100%" height="100%" viewBox="0 0 5953 795" version="1.1" xmlns="http://www.w3.org/2000/svg" xml:space="preserve" style="fill-rule:evenodd;clip-rule:evenodd;stroke-linejoin:round;stroke-miterlimit:2;">
    <g id="ArtBoard1" transform="matrix(5.03638,0,0,2.33824,2588.7,86.5147)">
        <rect x="-514" y="-37" width="1182" height="340" style="fill:rgb(13,13,13);fill-opacity:0;"/>
        <g transform="matrix(0.126462,0,0,0.272389,-538.412,136.511)">
            <g transform="matrix(1099.06,0,0,1099.06,227,524)">
                <path d="M0.263,-0.977L0.062,-0.977L0.062,-0L0.763,-0L0.763,-0.201L0.263,-0.201L0.263,-0.977Z" style="fill:rgb(117,45,224);fill-rule:nonzero;"/>
            </g>
            <g transform="matrix(1099.06,0,0,1099.06,866.652,524)">
                <path d="M0.596,-0L0.706,-0.288C0.765,-0.133 0.811,-0.014 0.816,-0L1.004,-0L1.381,-0.977L1.165,-0.977L0.911,-0.316C0.818,-0.559 0.756,-0.721 0.66,-0.977L0.445,-0.977C0.453,-0.959 0.521,-0.774 0.599,-0.57L0.502,-0.316L0.251,-0.977L0.036,-0.977C0.051,-0.936 0.392,-0.035 0.407,-0L0.596,-0Z" style="fill:rgb(117,45,224);fill-rule:nonzero;"/>
            </g>
            <g transform="matrix(1099.06,0,0,1099.06,2297.63,524)">
                <path d="M0.041,-0.489C0.041,-0.209 0.268,0.017 0.547,0.017C0.726,0.017 0.891,-0.075 0.984,-0.232L0.984,-0.577L0.536,-0.577L0.536,-0.375L0.783,-0.375L0.783,-0.294C0.726,-0.226 0.643,-0.184 0.547,-0.184C0.379,-0.184 0.242,-0.32 0.242,-0.489C0.242,-0.657 0.379,-0.794 0.547,-0.794C0.632,-0.794 0.706,-0.761 0.762,-0.705L0.932,-0.817C0.84,-0.926 0.704,-0.994 0.547,-0.994C0.268,-0.994 0.041,-0.769 0.041,-0.489Z" style="fill:rgb(117,45,224);fill-rule:nonzero;"/>
            </g>
            <g transform="matrix(1099.06,0,0,1099.06,4303.41,524)">
                <path d="M0.062,-0L0.263,-0L0.263,-0.372L0.583,-0.372C0.751,-0.372 0.886,-0.508 0.886,-0.675C0.886,-0.84 0.751,-0.977 0.583,-0.977L0.062,-0.977L0.062,-0ZM0.583,-0.777C0.64,-0.777 0.685,-0.731 0.685,-0.675C0.685,-0.618 0.64,-0.573 0.583,-0.573L0.263,-0.573L0.263,-0.777L0.583,-0.777Z" style="fill:rgb(117,45,224);fill-rule:nonzero;"/>
            </g>
            <g transform="matrix(1099.06,0,0,1099.06,5007.9,524)">
                <path d="M0.265,-0L0.496,-0.372L0.912,-0.372L1.142,-0L1.378,-0C1.35,-0.045 0.805,-0.934 0.773,-0.977L0.634,-0.977C0.621,-0.953 0.476,-0.72 0.332,-0.488C0.188,-0.256 0.044,-0.022 0.03,-0L0.265,-0ZM1.009,-0.777L1.424,-0.777C1.48,-0.777 1.525,-0.731 1.525,-0.675C1.525,-0.618 1.48,-0.573 1.424,-0.573L1.135,-0.573L1.489,-0L1.726,-0L1.491,-0.38C1.624,-0.409 1.726,-0.532 1.726,-0.675C1.726,-0.84 1.589,-0.977 1.424,-0.977L0.885,-0.977L1.009,-0.777ZM0.62,-0.573L0.704,-0.708L0.787,-0.573L0.62,-0.573Z" style="fill:rgb(117,45,224);fill-rule:nonzero;"/>
            </g>
            <g transform="matrix(1099.06,0,0,1099.06,6931.26,524)">
                <path d="M0.426,0.017C0.681,0.017 0.79,-0.112 0.79,-0.265C0.79,-0.421 0.689,-0.526 0.382,-0.593C0.342,-0.604 0.31,-0.612 0.289,-0.639C0.257,-0.682 0.264,-0.78 0.42,-0.777L1.291,-0.777L1.291,-0.977L0.42,-0.977C0.329,-0.977 0.073,-0.946 0.073,-0.696C0.073,-0.311 0.579,-0.439 0.59,-0.27C0.593,-0.179 0.463,-0.175 0.401,-0.178C0.332,-0.181 0.25,-0.209 0.25,-0.277L0.049,-0.277C0.049,-0.186 0.106,0.017 0.426,0.017ZM0.615,-0.606L0.615,-0.598C0.708,-0.557 0.793,-0.499 0.834,-0.404L1.291,-0.404L1.291,-0.606L0.615,-0.606ZM1.328,-0L1.328,-0.201L0.857,-0.201C0.841,-0.121 0.8,-0.049 0.735,-0L1.328,-0Z" style="fill:rgb(117,45,224);fill-rule:nonzero;"/>
            </g>
            <g transform="matrix(1099.06,0,0,1099.06,8425.97,524)">
                <path d="M0.263,-0L0.263,-0.372L0.419,-0.372L0.65,-0L0.886,-0L0.652,-0.38C0.786,-0.41 0.886,-0.532 0.886,-0.675C0.886,-0.84 0.751,-0.977 0.583,-0.977L0.062,-0.977L0.062,-0L0.263,-0ZM0.583,-0.777C0.64,-0.777 0.685,-0.731 0.685,-0.675C0.685,-0.618 0.64,-0.573 0.583,-0.573L0.263,-0.573L0.263,-0.777L0.583,-0.777Z" style="fill:rgb(117,45,224);fill-rule:nonzero;"/>
            </g>
        </g>
        <g transform="matrix(9.40504e-18,-0.272389,0.0651475,6.60014e-18,-48.1337,243.48)">
            <g transform="matrix(1099.06,0,0,1099.06,227,524)">
                <rect x="0.062" y="-0.977" width="0.201" height="0.977" style="fill:rgb(117,45,224);fill-rule:nonzero;"/>
            </g>
        </g>
    </g>
</svg>
