<?xml version="1.0" encoding="UTF-8"?>
<!-- Generated by Pixelmator Pro 3.6.13 -->
<svg width="401" height="401" viewBox="0 0 401 401" xmlns="http://www.w3.org/2000/svg">
    <g id="Gruppe">
        <path id="Pfad" fill="#f4f4f4" stroke="none" d="M 394 153.181 C 388.669006 147.850998 382.194 145.186996 374.583008 145.186996 L 255.811005 145.186996 L 255.811005 26.411987 C 255.811005 18.800995 253.145004 12.328003 247.817001 6.997986 C 242.488007 1.671997 236.020004 -0.993988 228.397995 -0.993988 L 173.585999 -0.993988 C 165.973999 -0.993988 159.501999 1.669006 154.171997 6.998993 C 148.841995 12.32901 146.177994 18.802002 146.177994 26.412994 L 146.177994 145.188004 L 27.407 145.188004 C 19.796 145.188004 13.323 147.85199 7.993 153.181992 C 2.663 158.511993 -0 164.979004 -0 172.595001 L -0 227.414001 C -0 235.031998 2.662 241.5 7.992 246.824997 C 13.322 252.156998 19.795 254.819 27.406 254.819 L 146.177002 254.819 L 146.177002 373.596008 C 146.177002 381.207001 148.841003 387.684998 154.171005 393.013 C 159.501007 398.338013 165.973007 401 173.585007 401 L 228.401001 401 C 236.018005 401 242.487 398.338013 247.817993 393.013 C 253.149994 387.682007 255.811996 381.207001 255.811996 373.596008 L 255.811996 254.819 L 374.582001 254.819 C 382.200012 254.819 388.67099 252.156998 393.998993 246.824997 C 399.328003 241.5 401.993011 235.031998 401.993011 227.414001 L 401.993011 172.595001 C 401.990997 164.979004 399.332001 158.507996 394 153.181 Z"/>
    </g>
    <g id="g1"/>
    <g id="g2"/>
    <g id="g3"/>
    <g id="g4"/>
    <g id="g5"/>
    <g id="g6"/>
    <g id="g7"/>
    <g id="g8"/>
    <g id="g9"/>
    <g id="g10"/>
    <g id="g11"/>
    <g id="g12"/>
    <g id="g13"/>
    <g id="g14"/>
    <g id="g15"/>
</svg>
