<?xml version="1.0" encoding="UTF-8" standalone="no"?>
<!DOCTYPE svg PUBLIC "-//W3C//DTD SVG 1.1//EN" "http://www.w3.org/Graphics/SVG/1.1/DTD/svg11.dtd">
<svg width="100%" height="100%" viewBox="0 0 3060 795" version="1.1" xmlns="http://www.w3.org/2000/svg" xmlns:xlink="http://www.w3.org/1999/xlink" xml:space="preserve" xmlns:serif="http://www.serif.com/" style="fill-rule:evenodd;clip-rule:evenodd;stroke-linejoin:round;stroke-miterlimit:2;">
    <g id="ArtBoard1" transform="matrix(2.58883,0,0,2.33824,1330.66,86.5147)">
        <rect x="-514" y="-37" width="1182" height="340" style="fill:rgb(13,13,13);fill-opacity:0;"/>
        <g transform="matrix(0.246022,0,0,0.272389,-561.492,136.511)">
            <g transform="matrix(1099.06,0,0,1099.06,227,524)">
                <path d="M0.263,-0.977L0.062,-0.977L0.062,-0L0.763,-0L0.763,-0.201L0.263,-0.201L0.263,-0.977Z" style="fill:rgb(117,45,224);fill-rule:nonzero;"/>
            </g>
            <g transform="matrix(1099.06,0,0,1099.06,866.652,524)">
                <path d="M0.596,-0L0.706,-0.288C0.765,-0.133 0.811,-0.014 0.816,-0L1.004,-0L1.381,-0.977L1.165,-0.977L0.911,-0.316C0.818,-0.559 0.756,-0.721 0.66,-0.977L0.445,-0.977C0.453,-0.959 0.521,-0.774 0.599,-0.57L0.502,-0.316L0.251,-0.977L0.036,-0.977C0.051,-0.936 0.392,-0.035 0.407,-0L0.596,-0Z" style="fill:rgb(117,45,224);fill-rule:nonzero;"/>
            </g>
            <g transform="matrix(1099.06,0,0,1099.06,2297.63,524)">
                <path d="M0.041,-0.489C0.041,-0.209 0.268,0.017 0.547,0.017C0.726,0.017 0.891,-0.075 0.984,-0.232L0.984,-0.577L0.536,-0.577L0.536,-0.375L0.783,-0.375L0.783,-0.294C0.726,-0.226 0.643,-0.184 0.547,-0.184C0.379,-0.184 0.242,-0.32 0.242,-0.489C0.242,-0.657 0.379,-0.794 0.547,-0.794C0.632,-0.794 0.706,-0.761 0.762,-0.705L0.932,-0.817C0.84,-0.926 0.704,-0.994 0.547,-0.994C0.268,-0.994 0.041,-0.769 0.041,-0.489Z" style="fill:rgb(117,45,224);fill-rule:nonzero;"/>
            </g>
        </g>
        <g transform="matrix(0.0991047,0,0,0.109726,243.152,-5.19198)">
            <g transform="matrix(643.11,0,0,643.11,227,524)">
                <path d="M0.263,-0.977L0.062,-0.977L0.062,-0L0.763,-0L0.763,-0.201L0.263,-0.201L0.263,-0.977Z" style="fill:rgb(12,224,21);fill-rule:nonzero;"/>
            </g>
            <g transform="matrix(643.11,0,0,643.11,696.471,524)">
                <path d="M0.049,-0.494C0.049,-0.215 0.275,0.012 0.554,0.012C0.647,0.012 0.731,-0.013 0.807,-0.056C0.883,-0.013 0.967,0.012 1.06,0.012C1.339,0.012 1.566,-0.215 1.566,-0.494C1.566,-0.774 1.339,-1.001 1.06,-1.001C0.967,-1.001 0.883,-0.976 0.807,-0.933C0.731,-0.976 0.647,-1.001 0.554,-1.001C0.274,-1.001 0.049,-0.774 0.049,-0.494ZM0.554,-0.799C0.589,-0.799 0.619,-0.795 0.646,-0.786C0.586,-0.702 0.553,-0.603 0.553,-0.494C0.553,-0.386 0.586,-0.287 0.646,-0.203C0.615,-0.194 0.584,-0.189 0.554,-0.189C0.386,-0.189 0.249,-0.326 0.249,-0.494C0.249,-0.663 0.386,-0.799 0.554,-0.799ZM0.968,-0.203C1.028,-0.287 1.061,-0.386 1.061,-0.494C1.061,-0.603 1.028,-0.702 0.968,-0.786C0.995,-0.795 1.025,-0.799 1.06,-0.799C1.228,-0.799 1.365,-0.663 1.365,-0.494C1.365,-0.326 1.228,-0.189 1.06,-0.189C1.03,-0.189 0.999,-0.194 0.968,-0.203ZM0.755,-0.494C0.755,-0.558 0.774,-0.617 0.807,-0.666C0.842,-0.617 0.859,-0.559 0.859,-0.494C0.859,-0.429 0.842,-0.372 0.807,-0.323C0.774,-0.372 0.755,-0.43 0.755,-0.494Z" style="fill:rgb(12,224,21);fill-rule:nonzero;"/>
            </g>
            <g transform="matrix(643.11,0,0,643.11,1724.8,524)">
                <path d="M0.062,-0L0.263,-0L0.263,-0.372L0.583,-0.372C0.751,-0.372 0.886,-0.508 0.886,-0.675C0.886,-0.84 0.751,-0.977 0.583,-0.977L0.062,-0.977L0.062,-0ZM0.583,-0.777C0.64,-0.777 0.685,-0.731 0.685,-0.675C0.685,-0.618 0.64,-0.573 0.583,-0.573L0.263,-0.573L0.263,-0.777L0.583,-0.777Z" style="fill:rgb(12,224,21);fill-rule:nonzero;"/>
            </g>
        </g>
        <g transform="matrix(0.0991047,0,0,0.109726,344.969,147.579)">
            <g transform="matrix(643.11,0,0,643.11,227,524)">
                <path d="M0.041,-0.489C0.041,-0.209 0.268,0.017 0.547,0.017C0.726,0.017 0.891,-0.075 0.984,-0.232L0.984,-0.577L0.536,-0.577L0.536,-0.375L0.783,-0.375L0.783,-0.294C0.726,-0.226 0.643,-0.184 0.547,-0.184C0.379,-0.184 0.242,-0.32 0.242,-0.489C0.242,-0.657 0.379,-0.794 0.547,-0.794C0.632,-0.794 0.706,-0.761 0.762,-0.705L0.932,-0.817C0.84,-0.926 0.704,-0.994 0.547,-0.994C0.268,-0.994 0.041,-0.769 0.041,-0.489Z" style="fill:rgb(0,122,255);fill-rule:nonzero;"/>
            </g>
            <g transform="matrix(643.11,0,0,643.11,887.474,524)">
                <path d="M0.042,-0.489C0.042,-0.209 0.269,0.017 0.548,0.017C0.828,0.017 1.055,-0.209 1.055,-0.489C1.055,-0.769 0.828,-0.994 0.548,-0.994C0.269,-0.994 0.042,-0.769 0.042,-0.489ZM0.548,-0.794C0.717,-0.794 0.853,-0.657 0.853,-0.489C0.853,-0.32 0.717,-0.184 0.548,-0.184C0.38,-0.184 0.243,-0.32 0.243,-0.489C0.243,-0.657 0.38,-0.794 0.548,-0.794Z" style="fill:rgb(0,122,255);fill-rule:nonzero;"/>
            </g>
            <g transform="matrix(643.11,0,0,643.11,1559.52,524)">
                <path d="M0.027,-0.977L0.027,-0.777L0.397,-0.777L0.397,-0L0.598,-0L0.598,-0.777L0.978,-0.777L0.978,-0.977L0.027,-0.977Z" style="fill:rgb(0,122,255);fill-rule:nonzero;"/>
            </g>
            <g transform="matrix(643.11,0,0,643.11,2173.05,524)">
                <path d="M0.042,-0.489C0.042,-0.209 0.269,0.017 0.548,0.017C0.828,0.017 1.055,-0.209 1.055,-0.489C1.055,-0.769 0.828,-0.994 0.548,-0.994C0.269,-0.994 0.042,-0.769 0.042,-0.489ZM0.548,-0.794C0.717,-0.794 0.853,-0.657 0.853,-0.489C0.853,-0.32 0.717,-0.184 0.548,-0.184C0.38,-0.184 0.243,-0.32 0.243,-0.489C0.243,-0.657 0.38,-0.794 0.548,-0.794Z" style="fill:rgb(0,122,255);fill-rule:nonzero;"/>
            </g>
        </g>
        <g transform="matrix(0.0991047,0,0,0.109726,286.476,225.636)">
            <g transform="matrix(643.11,0,0,643.11,227,524)">
                <path d="M0.062,-0L0.263,-0L0.263,-0.372L0.583,-0.372C0.751,-0.372 0.886,-0.508 0.886,-0.675C0.886,-0.84 0.751,-0.977 0.583,-0.977L0.062,-0.977L0.062,-0ZM0.583,-0.777C0.64,-0.777 0.685,-0.731 0.685,-0.675C0.685,-0.618 0.64,-0.573 0.583,-0.573L0.263,-0.573L0.263,-0.777L0.583,-0.777Z" style="fill:rgb(243,243,243);fill-rule:nonzero;"/>
            </g>
            <g transform="matrix(643.11,0,0,643.11,639.234,524)">
                <path d="M0.265,-0L0.496,-0.372L0.912,-0.372L1.142,-0L1.378,-0C1.35,-0.045 0.805,-0.934 0.773,-0.977L0.634,-0.977C0.621,-0.953 0.476,-0.72 0.332,-0.488C0.188,-0.256 0.044,-0.022 0.03,-0L0.265,-0ZM1.009,-0.777L1.424,-0.777C1.48,-0.777 1.525,-0.731 1.525,-0.675C1.525,-0.618 1.48,-0.573 1.424,-0.573L1.135,-0.573L1.489,-0L1.726,-0L1.491,-0.38C1.624,-0.409 1.726,-0.532 1.726,-0.675C1.726,-0.84 1.589,-0.977 1.424,-0.977L0.885,-0.977L1.009,-0.777ZM0.62,-0.573L0.704,-0.708L0.787,-0.573L0.62,-0.573Z" style="fill:rgb(243,243,243);fill-rule:nonzero;"/>
            </g>
            <g transform="matrix(643.11,0,0,643.11,1764.68,524)">
                <path d="M0.426,0.017C0.681,0.017 0.79,-0.112 0.79,-0.265C0.79,-0.421 0.689,-0.526 0.382,-0.593C0.342,-0.604 0.31,-0.612 0.289,-0.639C0.257,-0.682 0.264,-0.78 0.42,-0.777L1.291,-0.777L1.291,-0.977L0.42,-0.977C0.329,-0.977 0.073,-0.946 0.073,-0.696C0.073,-0.311 0.579,-0.439 0.59,-0.27C0.593,-0.179 0.463,-0.175 0.401,-0.178C0.332,-0.181 0.25,-0.209 0.25,-0.277L0.049,-0.277C0.049,-0.186 0.106,0.017 0.426,0.017ZM0.615,-0.606L0.615,-0.598C0.708,-0.557 0.793,-0.499 0.834,-0.404L1.291,-0.404L1.291,-0.606L0.615,-0.606ZM1.328,-0L1.328,-0.201L0.857,-0.201C0.841,-0.121 0.8,-0.049 0.735,-0L1.328,-0Z" style="fill:rgb(243,243,243);fill-rule:nonzero;"/>
            </g>
            <g transform="matrix(643.11,0,0,643.11,2639.31,524)">
                <path d="M0.263,-0L0.263,-0.372L0.419,-0.372L0.65,-0L0.886,-0L0.652,-0.38C0.786,-0.41 0.886,-0.532 0.886,-0.675C0.886,-0.84 0.751,-0.977 0.583,-0.977L0.062,-0.977L0.062,-0L0.263,-0ZM0.583,-0.777C0.64,-0.777 0.685,-0.731 0.685,-0.675C0.685,-0.618 0.64,-0.573 0.583,-0.573L0.263,-0.573L0.263,-0.777L0.583,-0.777Z" style="fill:rgb(243,243,243);fill-rule:nonzero;"/>
            </g>
        </g>
        <g transform="matrix(0.0541554,0,0,0.0599594,298.337,97.0947)">
            <g transform="matrix(1176.9,0,0,1176.9,227,524)">
                <path d="M0.596,-0L0.706,-0.288C0.765,-0.133 0.811,-0.014 0.816,-0L1.004,-0L1.381,-0.977L1.165,-0.977L0.911,-0.316C0.818,-0.559 0.756,-0.721 0.66,-0.977L0.445,-0.977C0.453,-0.959 0.521,-0.774 0.599,-0.57L0.502,-0.316L0.251,-0.977L0.036,-0.977C0.051,-0.936 0.392,-0.035 0.407,-0L0.596,-0Z" style="fill:rgb(255,92,92);fill-rule:nonzero;"/>
            </g>
            <g transform="matrix(1176.9,0,0,1176.9,1893.49,524)">
                <path d="M0.062,-0.977L0.062,-0L0.263,-0L0.263,-0.375L0.739,-0.375L0.739,-0L0.94,-0L0.94,-0.672L0.739,-0.672L0.739,-0.577L0.263,-0.577L0.263,-0.977L0.062,-0.977ZM0.84,-0.777C0.895,-0.777 0.94,-0.82 0.94,-0.877C0.94,-0.933 0.896,-0.977 0.84,-0.977C0.784,-0.977 0.739,-0.932 0.739,-0.877C0.739,-0.822 0.784,-0.777 0.84,-0.777Z" style="fill:rgb(255,92,92);fill-rule:nonzero;"/>
            </g>
            <g transform="matrix(1176.9,0,0,1176.9,3036.25,524)">
                <path d="M0.263,-0.977L0.062,-0.977L0.062,-0L0.763,-0L0.763,-0.201L0.263,-0.201L0.263,-0.977Z" style="fill:rgb(255,92,92);fill-rule:nonzero;"/>
            </g>
            <g transform="matrix(1176.9,0,0,1176.9,3944.82,524)">
                <path d="M0.062,-0L0.776,-0L0.776,-0.201L0.263,-0.201L0.263,-0.404L0.739,-0.404L0.739,-0.606L0.263,-0.606L0.263,-0.777L0.739,-0.777L0.739,-0.977L0.062,-0.977L0.062,-0Z" style="fill:rgb(255,92,92);fill-rule:nonzero;"/>
            </g>
        </g>
    </g>
</svg>
